<svg width="24" height="24" viewBox="0 0 24 24" fill="none" xmlns="http://www.w3.org/2000/svg">
<path d="M22.9411 6.30745C23.2167 5.22641 22.5637 4.12666 21.4826 3.8511C20.4016 3.57554 19.3019 4.22851 19.0263 5.30956C18.7507 6.39061 19.4037 7.49035 20.4848 7.76592C21.5658 8.04148 22.6655 7.3885 22.9411 6.30745Z" fill="#181717"/>
<path d="M16.1571 4.49639C18.0239 2.16701 14.7509 -0.174277 13.0404 1.95957C12.9444 2.05576 1.85291 15.7251 1.77785 15.8389C-0.193054 18.2981 2.9424 20.8112 4.89453 18.3758C4.99042 18.2795 16.082 4.61015 16.1571 4.49639Z" fill="#181717"/>
<path d="M18.6011 11.9389C20.3926 9.70365 17.2572 7.19068 15.4854 9.4013C15.3886 9.4981 7.85391 18.8171 7.77824 18.9319C5.97499 21.2674 9.11031 23.7803 10.894 21.4695C10.9908 21.3727 18.5256 12.0537 18.6011 11.9389Z" fill="#181717"/>
<path d="M4.765 7.69424C5.80766 7.29752 6.33131 6.13066 5.93459 5.08799C5.53787 4.04532 4.37102 3.52168 3.32835 3.9184C2.28568 4.31511 1.76203 5.48197 2.15875 6.52464C2.55547 7.56731 3.72233 8.09095 4.765 7.69424Z" fill="#181717"/>
</svg>
